<svg xmlns="http://www.w3.org/2000/svg" width="55" height="55" viewBox="0 0 55 55"><g transform="translate(-554 -512)"><path d="M27.5,55A27.5,27.5,0,1,0,0,27.5,27.5,27.5,0,0,0,27.5,55Z" transform="translate(554 567) rotate(-90)" fill="#d2ff75"/><path d="M13.675,11.52l6.466-6.466a1.552,1.552,0,0,0,.4-1.469,1.479,1.479,0,0,0-1.068-1.068,1.5,1.5,0,0,0-1.469.4L11.52,9.365,5.054,2.9a1.552,1.552,0,0,0-1.469-.4A1.57,1.57,0,0,0,2.518,3.586a1.5,1.5,0,0,0,.4,1.469L9.365,11.52,2.9,17.986a1.552,1.552,0,0,0-.4,1.469,1.479,1.479,0,0,0,1.068,1.068,1.5,1.5,0,0,0,1.469-.4l6.485-6.447,6.466,6.466a1.552,1.552,0,0,0,1.469.4,1.479,1.479,0,0,0,1.068-1.068,1.5,1.5,0,0,0-.4-1.469Z" transform="translate(569.98 527.98)" fill="#0b0d48"/></g></svg>