<svg xmlns="http://www.w3.org/2000/svg" width="55" height="55" viewBox="0 0 55 55"><g transform="translate(0 55) rotate(-90)"><path d="M27.5,55A27.5,27.5,0,1,0,0,27.5,27.5,27.5,0,0,0,27.5,55Z" transform="translate(0 0)" fill="#d2ff75"/><g transform="translate(56.299 -2.115) rotate(90)"><path d="M37.506,17.76a1.027,1.027,0,0,0-1.027,1.027v9.954l-3.749-3.513a1.027,1.027,0,1,0-1.4,1.5L36.8,31.864l.062.048a1.028,1.028,0,0,0,.082.065l.089.048.086.041.11.034.079.021a.989.989,0,0,0,.394,0l.079-.021.11-.034.086-.041.089-.048a1.027,1.027,0,0,0,.082-.065l.062-.048,5.478-5.136a1.027,1.027,0,1,0-1.4-1.5l-3.753,3.513V18.787A1.027,1.027,0,0,0,37.506,17.76Z" transform="translate(-7.891)" fill="#0b0d48"/><path d="M40.229,63.267a1.027,1.027,0,1,0-2.054,0v2.739a1.027,1.027,0,0,1-1.027,1.027H22.082a1.027,1.027,0,0,1-1.027-1.027V63.267a1.027,1.027,0,0,0-2.054,0v2.739a3.082,3.082,0,0,0,3.082,3.082H37.147a3.082,3.082,0,0,0,3.082-3.082Z" transform="translate(0 -29.25)" fill="#0b0d48"/></g></g></svg>