<svg xmlns="http://www.w3.org/2000/svg" width="30.408" height="30.401" viewBox="0 0 30.408 30.401"><path d="M15.132,39.231a7.794,7.794,0,1,0,7.794,7.794A7.782,7.782,0,0,0,15.132,39.231Zm0,12.862A5.067,5.067,0,1,1,20.2,47.026,5.077,5.077,0,0,1,15.132,52.093Zm9.931-13.181a1.818,1.818,0,1,1-1.818-1.818A1.814,1.814,0,0,1,25.064,38.912Zm5.162,1.845a9,9,0,0,0-2.456-6.37,9.056,9.056,0,0,0-6.37-2.456c-2.51-.142-10.033-.142-12.543,0a9.043,9.043,0,0,0-6.37,2.449,9.026,9.026,0,0,0-2.456,6.37c-.142,2.51-.142,10.033,0,12.543a9,9,0,0,0,2.456,6.37,9.068,9.068,0,0,0,6.37,2.456c2.51.142,10.033.142,12.543,0a9,9,0,0,0,6.37-2.456,9.056,9.056,0,0,0,2.456-6.37C30.369,50.784,30.369,43.267,30.226,40.757ZM26.984,55.987a5.13,5.13,0,0,1-2.89,2.89c-2,.794-6.75.611-8.961.611s-6.967.176-8.961-.611a5.13,5.13,0,0,1-2.89-2.89c-.794-2-.611-6.75-.611-8.961s-.176-6.967.611-8.961a5.13,5.13,0,0,1,2.89-2.89c2-.794,6.75-.611,8.961-.611s6.967-.176,8.961.611a5.13,5.13,0,0,1,2.89,2.89c.794,2,.611,6.75.611,8.961S27.777,53.992,26.984,55.987Z" transform="translate(0.075 -31.825)" fill="#fff"/></svg>