<svg xmlns="http://www.w3.org/2000/svg" xmlns:xlink="http://www.w3.org/1999/xlink" width="200.76" height="60.995" viewBox="0 0 200.76 60.995"><defs><linearGradient id="a" x1="0.737" y1="0.104" x2="0.4" y2="0.93" gradientUnits="objectBoundingBox"><stop offset="0" stop-color="#fff" stop-opacity="0"/><stop offset="0.305" stop-color="#fff" stop-opacity="0.251"/><stop offset="1" stop-color="#fff"/></linearGradient></defs><g transform="translate(-140 -883.789)"><g transform="translate(140 883.789)"><path d="M2688.9-2891.835l17.986,10.336v41.753l5.145-3.115-.064-41.409-18.136-10.447Z" transform="translate(-2688.904 2900.741)" fill="#fff"/><path d="M2688.9-2891.835l17.986,10.336v41.753l5.145-3.115-.064-41.409-18.136-10.447Z" transform="translate(-2679.282 2894.717)" fill="#fff"/><path d="M2493.521-2820.885v-41.55l-4.969,2.84-.009,41.593Z" transform="translate(-2488.544 2868.479)" fill="#fff"/><path d="M2619.127-2540l-36.666,22.755-17.95-10.552,37.133-22.337Z" transform="translate(-2564.465 2578.235)" fill="url(#a)"/></g><g transform="translate(191.49 897.645)"><path d="M24.792,31.847c6.184,0,9.085-4.51,9.085-9.272,0-4.4-2.533-6.569-5.858-7.135,3-.723,5.264-2.389,5.264-6.632,0-4.007-2.773-8.722-9.141-8.722H0v31.76ZM21.976,11.5H9.325V8.7H21.976c.962,0,1.839.142,1.839,1.352,0,1.194-.877,1.446-1.839,1.446m.269,11.755H9.325V20.092h12.92c1.344,0,2.179.267,2.179,1.6s-1.146,1.556-2.179,1.556" transform="translate(0 0.879)" fill="#fff"/><path d="M395.158,31.847v-9H374.583V20.3h19.16V11.275h-19.16V9.107h20.575V.087h-29.9v31.76Z" transform="translate(-245.888 0.879)" fill="#fff"/><path d="M259.732,31.823c12.325,0,18.48-3.331,18.48-15.9C278.212,3.331,272.057,0,259.732,0H243.289V31.76h9.325ZM252.614,9.13h7.118c6.184,0,9.014.943,9.014,6.789,0,5.83-2.83,6.773-9.014,6.773h-7.118Z" transform="translate(-163.901 0.934)" fill="#fff"/><path d="M19.18,0C6.388,0,0,3.457,0,16.522,0,29.569,6.388,33.027,19.18,33.027s19.18-3.457,19.18-16.505C38.359,3.457,31.986,0,19.18,0m0,23.551c-6.418,0-9.355-.979-9.355-7.029,0-6.067,2.937-7.046,9.355-7.046s9.37.979,9.37,7.046c0,6.051-2.937,7.029-9.37,7.029" transform="matrix(1, -0.017, 0.017, 1, 36.985, 0.669)" fill="#fff"/></g></g></svg>