<svg xmlns="http://www.w3.org/2000/svg" xmlns:xlink="http://www.w3.org/1999/xlink" width="150.951" height="45.862" viewBox="0 0 150.951 45.862"><defs><linearGradient id="a" x1="0.737" y1="0.104" x2="0.4" y2="0.93" gradientUnits="objectBoundingBox"><stop offset="0" stop-color="#4456f2" stop-opacity="0"/><stop offset="0.305" stop-color="#4456f2" stop-opacity="0.251"/><stop offset="1" stop-color="#4456f2"/></linearGradient></defs><g transform="translate(-140 -883.789)"><g transform="translate(140 883.789)"><path d="M2688.9-2892.55l13.523,7.771v31.394l3.869-2.342-.048-31.135-13.636-7.855Z" transform="translate(-2688.904 2899.247)" fill="#4456f2"/><path d="M2688.9-2892.55l13.523,7.771v31.394l3.869-2.342-.048-31.135-13.636-7.855Z" transform="translate(-2681.669 2894.717)" fill="#4456f2"/><path d="M2492.286-2831.194v-31.241l-3.736,2.135-.006,31.274Z" transform="translate(-2488.543 2866.98)" fill="#4456f2"/><path d="M2605.576-2542.51l-27.569,17.109-13.5-7.934,27.92-16.8Z" transform="translate(-2564.476 2571.262)" fill="url(#a)"/></g><g transform="translate(178.715 894.207)"><path d="M18.641,23.967c4.65,0,6.831-3.391,6.831-6.971a4.96,4.96,0,0,0-4.4-5.365c2.256-.544,3.958-1.8,3.958-4.987A6.468,6.468,0,0,0,18.151.087H0v23.88Zm-2.117-15.3H7.012v-2.1h9.512c.723,0,1.383.106,1.383,1.016s-.66,1.087-1.383,1.087m.2,8.838H7.012V15.129h9.714c1.011,0,1.639.2,1.639,1.205S17.5,17.5,16.726,17.5" transform="translate(0 0.639)" fill="#4456f2"/><path d="M387.74,23.967V17.2h-15.47V15.282h14.406V8.5H372.269V6.869h15.47V.087H365.258v23.88Z" transform="translate(-275.504 0.639)" fill="#4456f2"/><path d="M255.652,23.928c9.267,0,13.9-2.5,13.9-11.958S264.92,0,255.652,0H243.289V23.88H250.3ZM250.3,6.865h5.352c4.65,0,6.777.709,6.777,5.1s-2.128,5.093-6.777,5.093H250.3Z" transform="translate(-183.597 0.702)" fill="#4456f2"/><path d="M14.421,0C4.8,0,0,2.6,0,12.423s4.8,12.41,14.421,12.41,14.421-2.6,14.421-12.41S24.05,0,14.421,0m0,17.708c-4.825,0-7.034-.736-7.034-5.285s2.208-5.3,7.034-5.3,7.045.736,7.045,5.3-2.209,5.285-7.045,5.285" transform="matrix(1, -0.017, 0.017, 1, 27.809, 0.503)" fill="#4456f2"/></g></g></svg>