<svg xmlns="http://www.w3.org/2000/svg" width="118.947" height="120.655" viewBox="0 0 118.947 120.655">
  <path id="Union_10" data-name="Union 10" d="M19.141,120.655v0H0a19.869,19.869,0,0,0,7.754-1.571,19.932,19.932,0,0,0,6.358-4.286,19.922,19.922,0,0,0,4.286-6.358,19.9,19.9,0,0,0,.743-2.064V78.554a59,59,0,0,1,59-59h24.985a19.837,19.837,0,0,0,3.556-1.125,19.946,19.946,0,0,0,6.358-4.286,19.932,19.932,0,0,0,4.286-6.358A19.873,19.873,0,0,0,118.9,0V19.553h.05v101.1Z" transform="translate(-0.001)" fill="#e2e8ef"/>
</svg>
