<svg xmlns="http://www.w3.org/2000/svg" width="93.969" height="95" viewBox="0 0 93.969 95">
  <path id="Union_10" data-name="Union 10" d="M-1126.029-11508H-1146a19.846,19.846,0,0,0,7.755-1.572,19.892,19.892,0,0,0,6.357-4.286,19.893,19.893,0,0,0,4.286-6.357,19.867,19.867,0,0,0,1.572-7.783v-6a49,49,0,0,1,49-49h5a19.844,19.844,0,0,0,7.755-1.57,19.956,19.956,0,0,0,6.357-4.286,19.934,19.934,0,0,0,4.286-6.359,19.865,19.865,0,0,0,1.572-7.784v20h.029v75Z" transform="translate(1146 11603.001)" fill="#fff"/>
</svg>
