<svg xmlns="http://www.w3.org/2000/svg" width="125.741" height="112.796" viewBox="0 0 125.741 112.796">
  <path id="Union_10" data-name="Union 10" d="M19.89,112.8H-.079a19.869,19.869,0,0,0,7.754-1.571,19.931,19.931,0,0,0,6.358-4.286,19.922,19.922,0,0,0,4.286-6.358A19.869,19.869,0,0,0,19.89,92.8V79a59,59,0,0,1,59-59h46.771v92.8ZM125.661,20H105.692a19.869,19.869,0,0,0,7.754-1.571,19.931,19.931,0,0,0,6.358-4.286,19.932,19.932,0,0,0,4.286-6.358A19.869,19.869,0,0,0,125.662,0V20h0Z" transform="translate(0.079)" fill="#fff"/>
</svg>
