<svg xmlns="http://www.w3.org/2000/svg" width="118.947" height="120.653" viewBox="0 0 118.947 120.653">
  <g id="Group_323" data-name="Group 323" transform="translate(0.001 0)">
    <path id="Union_10" data-name="Union 10" d="M19.72,120.626H-.249a19.87,19.87,0,0,0,7.754-1.572,19.918,19.918,0,0,0,6.357-4.286,19.934,19.934,0,0,0,4.287-6.358,19.92,19.92,0,0,0,.743-2.065V78.527a59,59,0,0,1,59-59h24.984a19.817,19.817,0,0,0,3.557-1.126,19.931,19.931,0,0,0,6.358-4.286,19.946,19.946,0,0,0,4.286-6.358,19.872,19.872,0,0,0,1.571-7.785V19.527h.05v101.1Z" transform="translate(118.697 120.626) rotate(180)" fill="#fff"/>
  </g>
</svg>
