<svg xmlns="http://www.w3.org/2000/svg" width="18.138" height="18.138" viewBox="0 0 18.138 18.138"><path d="M13.675,11.52l6.466-6.466a1.552,1.552,0,0,0,.4-1.469,1.479,1.479,0,0,0-1.068-1.068,1.5,1.5,0,0,0-1.469.4L11.52,9.365,5.054,2.9a1.552,1.552,0,0,0-1.469-.4A1.57,1.57,0,0,0,2.518,3.586a1.5,1.5,0,0,0,.4,1.469L9.365,11.52,2.9,17.986a1.552,1.552,0,0,0-.4,1.469,1.479,1.479,0,0,0,1.068,1.068,1.5,1.5,0,0,0,1.469-.4l6.485-6.447,6.466,6.466a1.552,1.552,0,0,0,1.469.4,1.479,1.479,0,0,0,1.068-1.068,1.5,1.5,0,0,0-.4-1.469Z" transform="translate(-2.451 -2.451)" fill="#0b0d48"/></svg>