<svg id="Group_811" data-name="Group 811" xmlns="http://www.w3.org/2000/svg" width="21.65" height="16.603" viewBox="0 0 21.65 16.603">
  <path id="arrow-up-solid" d="M16.217,6.266a1.185,1.185,0,0,1,0,1.675L10.3,13.857a1.184,1.184,0,0,1-1.675-1.675l3.9-3.9H1.183a1.183,1.183,0,1,1,0-2.366h11.34L8.63,2.022A1.184,1.184,0,1,1,10.3.347L16.22,6.262Z" transform="translate(21.65 15.403) rotate(180)" fill="#D2FF75"/>
  <path id="Pfad_3019" data-name="Pfad 3019" d="M1.2,16.6A1.2,1.2,0,0,1,0,15.4V1.2a1.2,1.2,0,0,1,2.4,0V15.4A1.2,1.2,0,0,1,1.2,16.6Z" fill="#D2FF75"/>
</svg>
