<svg id="noun-grid-131491" xmlns="http://www.w3.org/2000/svg" width="871.01" height="129.635" viewBox="0 0 871.01 129.635">
  <path id="Path_2852" data-name="Path 2852" d="M870.98,50.688a.831.831,0,0,0-.223-.073,3.488,3.488,0,0,0-.435-.069L435.65.043c-.116-.014-.242-.024-.4-.033-.135,0-.29-.009-.455-.009s-.3,0-.435.009c-.155,0-.281.019-.4.033L.687,50.546a3.345,3.345,0,0,0-.436.069.668.668,0,0,0-.223.078c-.039.024-.039.05,0,.073a.618.618,0,0,0,.2.069l436.24,78.7c.194.033.4.054.619.073.2.014.455.024.677.024.242,0,.474-.009.7-.024s.436-.043.619-.073l431.672-78.7a.527.527,0,0,0,.223-.069C871.019,50.745,871.019,50.716,870.98,50.688ZM647.044,40.8l58.367-8.966,77.1,8.971-57.709,9.6L647.044,40.8l-2.2-.268L572.3,31.574l58.851-8.383h.01l72.071,8.388L644.847,40.53Zm-213.117,9.89-72.7,10.33-67.939-10.33,72.565-9.627ZM367.9,40.793l67.629-8.975L503.56,40.8,435.969,50.4Zm68.084,10.186,73.155,10.349L436.482,72.464,363.288,61.333Zm2.042-.291L505.6,41.063l72.942,9.629L511.176,61.013Zm69.5-9.895,63-8.966L643.076,40.8,580.431,50.4Zm-2.061-.27L437.44,31.562l63.187-8.383,67.842,8.393Zm-69.932-9.21-63.6-8.378,63.226-7.855,63.564,7.864Zm-1.907.253L366,40.518l-63.5-8.961,67.523-8.388Zm-69.681,9.226L291.382,50.4l-63.187-9.615,72.265-8.975Zm-74.752,9.895L211.162,61.023,148.478,50.688,226,41.061Zm1.907.291L359.04,61.333,280.63,72.474,213.059,61.338Zm69.981,10.664L434.276,72.8,355.7,84.846l-73.02-12.034Zm75.42,11.5L515.609,85.2,437.073,98.265,357.907,85.213Zm2.187-.339L511.35,61.643l78.836,11.15L517.805,84.832l1.19.182-1.21-.182Zm74.7-11.472,67.348-10.349,78.391,10.345L592.219,72.457Zm69.255-10.643,62.625-9.62,77.8,9.624L661.019,61.013ZM559.682,14.869,500.5,22.707l1.907.237,59.18-7.85,67.552,7.86-58.9,8.364L502.4,22.944l-1.906-.237-63.564-7.85,59.335-7.369ZM434.818.334l59.655,6.945-59.335,7.36L375.444,7.265ZM373.663,7.476l59.693,7.379L370.131,22.7l-59.6-7.85Zm-65.035,7.592,59.6,7.864L300.7,31.3l-59.354-8.378ZM239.315,23.16l59.374,8.4-72.265,8.961-58.958-8.966ZM165.289,31.8l58.938,8.985L146.707,50.4l-58.329-9.62ZM3.542,50.688l82.5-9.632,58.309,9.632L60.98,61.028Zm59.18,10.655,83.414-10.364L208.8,61.338,124.651,72.485Zm63.8,11.475,84.169-11.169,67.552,11.164-84.8,12.048Zm68.955,12.41,84.817-12.076,73.02,12.062L268.019,98.284ZM270.236,98.68l85.291-13.1,79.165,13.083-85.514,14.222Zm167.543,30.148-86.211-15.513,85.514-14.255,86.133,14.232Zm87.827-15.97L439.492,98.663l78.517-13.1,85.775,13.076Zm80.365-14.616L520.215,85.2l-.01,0,72.371-12.064,85.214,12.052ZM679.784,84.82,594.59,72.8l66.893-11.155,84.478,11.145Zm68.045-12.372L663.371,61.326l62.035-10.345,83.607,10.34Zm62.906-11.437L727.157,50.692l57.69-9.62,82.639,9.62Z" transform="translate(0)" fill="#fff"/>
</svg>
