<svg xmlns="http://www.w3.org/2000/svg" width="132.751" height="105.229" viewBox="0 0 132.751 105.229">
  <g id="Group_864" data-name="Group 864" transform="translate(-872.659 -676.386)">
    <g id="Component_49_1" data-name="Component 49 – 1" transform="translate(886.387 676.386)">
      <g id="Group_583" data-name="Group 583" transform="translate(15.114 90.114) rotate(-90)">
        <g id="Path_206" data-name="Path 206" transform="translate(-15.114 -15.114)" fill="#fff">
          <path d="M 52.61425399780273 97.72850036621094 C 27.7381706237793 97.72850036621094 7.500003814697266 77.49033355712891 7.500003814697266 52.61425399780273 C 7.500003814697266 27.7381706237793 27.7381706237793 7.500003814697266 52.61425399780273 7.500003814697266 C 77.49033355712891 7.500003814697266 97.72850036621094 27.7381706237793 97.72850036621094 52.61425399780273 C 97.72850036621094 77.49033355712891 77.49033355712891 97.72850036621094 52.61425399780273 97.72850036621094 Z" stroke="none"/>
          <path d="M 52.61425399780273 15.00000762939453 C 31.87369537353516 15.00000762939453 15.00000762939453 31.87369537353516 15.00000762939453 52.61425399780273 C 15.00000762939453 73.35481262207031 31.87369537353516 90.22850036621094 52.61425399780273 90.22850036621094 C 73.35481262207031 90.22850036621094 90.22850036621094 73.35481262207031 90.22850036621094 52.61425399780273 C 90.22850036621094 31.87369537353516 73.35481262207031 15.00000762939453 52.61425399780273 15.00000762939453 M 52.61425399780273 7.62939453125e-06 C 81.67230987548828 7.62939453125e-06 105.2285003662109 23.55622863769531 105.2285003662109 52.61425399780273 C 105.2285003662109 81.67230987548828 81.67230987548828 105.2285003662109 52.61425399780273 105.2285003662109 C 23.55622863769531 105.2285003662109 7.62939453125e-06 81.67230987548828 7.62939453125e-06 52.61425399780273 C 7.62939453125e-06 23.55622863769531 23.55622863769531 7.62939453125e-06 52.61425399780273 7.62939453125e-06 Z" stroke="none" fill="#fff"/>
        </g>
      </g>
    </g>
    <path id="corner" d="M0,14.752H0V0H14.8A15,15,0,0,0,0,14.752Z" transform="translate(990.613 725.001)" fill="#fff"/>
    <path id="corner-2" data-name="corner" d="M14.751,14.752H0V-.049A14.926,14.926,0,0,0,4.393,10.358,14.916,14.916,0,0,0,14.751,14.75Z" transform="translate(887.41 739.753) rotate(180)" fill="#fff"/>
  </g>
</svg>
