<svg xmlns="http://www.w3.org/2000/svg" xmlns:xlink="http://www.w3.org/1999/xlink" width="1205.37" height="490.013" viewBox="0 0 1205.37 490.013">
  <defs>
    <clipPath id="clip-path">
      <path id="Subtraction_113" data-name="Subtraction 113" d="M-3191.453-12902.37H-4371.177c-3.425,0-6.645-1.867-9.067-5.257a21.942,21.942,0,0,1-3.756-12.691v-454.115a21.947,21.947,0,0,1,3.756-12.692c2.422-3.39,5.642-5.257,9.067-5.257h1060.512a29.86,29.86,0,0,1,5.583,1.741,29.928,29.928,0,0,1,9.536,6.431,29.869,29.869,0,0,1,6.43,9.536,29.645,29.645,0,0,1,1.62,5.034v36.261a49.673,49.673,0,0,0,3.929,19.461,49.82,49.82,0,0,0,10.715,15.893,49.818,49.818,0,0,0,15.894,10.715,49.688,49.688,0,0,0,19.463,3.93h34.829a29.671,29.671,0,0,1,5.583,1.741,29.806,29.806,0,0,1,9.536,6.43,29.807,29.807,0,0,1,6.43,9.536,29.723,29.723,0,0,1,2.353,11.646l0-29.354h.131v363.063a21.945,21.945,0,0,1-3.756,12.691C-3184.808-12904.237-3188.028-12902.37-3191.453-12902.37Z" transform="translate(4976.495 16597.383)" fill="#4456f2"/>
    </clipPath>
    <linearGradient id="linear-gradient" x1="0.5" x2="0.5" y2="0.976" gradientUnits="objectBoundingBox">
      <stop offset="0" stop-color="#4456f2"/>
      <stop offset="0.453" stop-color="#3e4fed" stop-opacity="0.878"/>
      <stop offset="1" stop-color="#44a3f9" stop-opacity="0"/>
    </linearGradient>
  </defs>
  <g id="Mask_Group_105" data-name="Mask Group 105" transform="translate(-592.495 -3205)" opacity="0.303" clip-path="url(#clip-path)">
    <rect id="Rectangle_1588" data-name="Rectangle 1588" width="419.211" height="949.176" transform="translate(2001.236 2936.202) rotate(45)" fill="url(#linear-gradient)"/>
    <rect id="Rectangle_1589" data-name="Rectangle 1589" width="419.211" height="949.176" transform="translate(2086.349 2773.947) rotate(45)" fill="url(#linear-gradient)"/>
  </g>
</svg>
