<svg xmlns="http://www.w3.org/2000/svg" xmlns:xlink="http://www.w3.org/1999/xlink" width="509.677" height="530.891" viewBox="0 0 509.677 530.891">
  <defs>
    <filter id="Subtraction_29" x="0" y="0" width="509.677" height="530.891" filterUnits="userSpaceOnUse">
      <feOffset dy="3" input="SourceAlpha"/>
      <feGaussianBlur stdDeviation="10" result="blur"/>
      <feFlood flood-opacity="0.161"/>
      <feComposite operator="in" in2="blur"/>
      <feComposite in="SourceGraphic"/>
    </filter>
  </defs>
  <g transform="matrix(1, 0, 0, 1, 0, 0)" filter="url(#Subtraction_29)">
    <path id="Subtraction_29-2" data-name="Subtraction 29" d="M360.127,470.891H19.839a27.721,27.721,0,0,1-14.028-3.477C2.064,465.172,0,462.191,0,459.02V11.871C0,8.7,2.064,5.719,5.811,3.477A27.72,27.72,0,0,1,19.839,0h410a27.72,27.72,0,0,1,14.028,3.477c3.747,2.242,5.811,5.223,5.811,8.394v378.9a10.012,10.012,0,0,1-9.993,9.81h-34.63a36.969,36.969,0,0,0-37,37v23.522a10.018,10.018,0,0,1-7.927,9.784ZM90.166,356.388a43.076,43.076,0,0,0-7.045.582c-2.672.559-4.332,2.293-4.332,4.526v7.979c0,2.267,1.636,3.972,4.378,4.56a42.421,42.421,0,0,0,14.057.012c2.651-.5,4.364-2.293,4.364-4.561v-7.979c0-2.268-1.718-4.049-4.378-4.537A43.064,43.064,0,0,0,90.166,356.388ZM44.9,355.342c-1.717,0-3.242.026-3.978.067a5.335,5.335,0,0,0-5.6,5.594c-.09,1.6-.09,6.358,0,7.957a5.34,5.34,0,0,0,5.6,5.6c.736.042,2.261.068,3.979.068s3.242-.026,3.978-.068a5.34,5.34,0,0,0,5.6-5.6c.09-1.6.09-6.354,0-7.952a5.341,5.341,0,0,0-5.6-5.6C48.141,355.367,46.616,355.342,44.9,355.342Zm91.718,7.75c2.068,0,2.068,1.96,2.068,3.391v6.236h3.969l0-7.036a8.059,8.059,0,0,0-.873-4.339c-.744-1.182-2.017-1.756-3.893-1.756a4.2,4.2,0,0,0-3.764,2.07h-.056v-1.748h-3.815v12.81h3.974v-6.343C134.231,364.752,134.514,363.092,136.616,363.092Zm-12.829-3.182v12.81h3.978v-12.81Zm1.986-6.378a2.315,2.315,0,1,0,2.3,2.3A2.306,2.306,0,0,0,125.773,353.531ZM46.6,372.9c-.355,0-.7,0-1-.006h-.024c-.247,0-.481,0-.678,0s-.424,0-.674,0H44.22c-.3,0-.638.006-.99.006a13.779,13.779,0,0,1-4.013-.4,3.254,3.254,0,0,1-1.833-1.833,17.354,17.354,0,0,1-.393-5v-.009c0-.247,0-.481,0-.678s0-.414,0-.658v-.013a17.565,17.565,0,0,1,.392-5.014,3.255,3.255,0,0,1,1.833-1.832,13.575,13.575,0,0,1,3.981-.4c.368,0,.727,0,1.017.007h.008c.247,0,.481,0,.678,0s.414,0,.658,0h.013c.3,0,.636-.006.992-.006a13.836,13.836,0,0,1,4.021.4,3.249,3.249,0,0,1,1.833,1.832,17.357,17.357,0,0,1,.393,5v.009c0,.247,0,.481,0,.678s0,.431,0,.678v.008a17.332,17.332,0,0,1-.393,5,3.254,3.254,0,0,1-1.833,1.833A13.577,13.577,0,0,1,46.6,372.9ZM44.9,360.04a4.937,4.937,0,1,0,3.5,1.446A4.914,4.914,0,0,0,44.9,360.04Zm5.147-1.355a1.152,1.152,0,1,0,1.153,1.152A1.154,1.154,0,0,0,50.048,358.685Zm37.87,10.836h-.01a.664.664,0,0,1-.285-.069.594.594,0,0,1-.284-.524v-6.84a.59.59,0,0,1,.284-.5.616.616,0,0,1,.581,0l5.7,3.419a.582.582,0,0,1,0,.981v.034l-5.7,3.42A.552.552,0,0,1,87.918,369.521ZM44.9,368.2a3.215,3.215,0,1,1,3.215-3.216A3.219,3.219,0,0,1,44.9,368.2Z" transform="translate(30 27)" fill="#fff"/>
  </g>
</svg>
