<svg id="noun-grid-131491" xmlns="http://www.w3.org/2000/svg" width="712.749" height="111.619" viewBox="0 0 712.749 111.619">
  <path id="Path_2852" data-name="Path 2852" d="M712.725,43.643a.657.657,0,0,0-.182-.063,2.721,2.721,0,0,0-.356-.059L356.493.037c-.1-.012-.2-.02-.325-.029C356.058,0,355.931,0,355.8,0s-.246,0-.356.008a3.232,3.232,0,0,0-.325.029L.562,43.521a2.612,2.612,0,0,0-.356.059.529.529,0,0,0-.182.067c-.032.02-.032.043,0,.063a.489.489,0,0,0,.166.059l356.976,67.766c.158.029.325.047.507.063.166.012.372.02.554.02.2,0,.388-.008.57-.02s.356-.037.507-.063L712.543,43.77a.416.416,0,0,0,.182-.059C712.757,43.692,712.757,43.668,712.725,43.643ZM529.477,35.128l47.762-7.72,63.094,7.724L593.11,43.4l-63.633-8.271-1.8-.23-59.364-7.712,48.158-7.218h.008l58.976,7.222L527.68,34.9ZM355.084,43.643l-59.491,8.895L240,43.643l59.38-8.289Zm-54.026-8.519L356.4,27.4l55.666,7.732L356.754,43.4Zm55.713,8.77,59.863,8.911-59.459,9.588L297.28,52.809Zm1.671-.251,55.293-8.287,59.689,8.291L418.3,52.534Zm56.869-8.519,51.556-7.72,59.364,7.724L474.968,43.4Zm-1.687-.233-55.666-7.716,51.706-7.218,55.515,7.226ZM356.4,26.961l-52.046-7.214,51.738-6.763L408.1,19.756Zm-1.56.218L299.5,34.887l-51.959-7.716,55.254-7.222Zm-57.02,7.944L238.438,43.4,186.732,35.12l59.134-7.728Zm-61.17,8.519-63.854,8.9-51.294-8.9,63.435-8.289Zm1.56.251L293.8,52.809,229.64,62.4l-55.293-9.588Zm57.265,9.182,59.895,9.609-64.3,10.369L231.319,62.693Zm61.716,9.9,64.733,10.382-64.266,11.25L292.876,73.371Zm1.79-.292,59.459-9.609,64.512,9.6L423.721,73.042l.974.157-.99-.157Zm61.13-9.878L475.221,43.9,539.369,52.8l-54.755,9.584Zm56.671-9.164,51.246-8.283,63.664,8.287-50.779,8.887ZM457.989,12.8l-48.427,6.749,1.56.2L459.549,13l55.278,6.767-48.2,7.2-55.515-7.21-1.56-.2-52.015-6.759,48.554-6.345ZM355.812.288l48.815,5.98L356.073,12.6,307.226,6.255ZM305.769,6.437l48.847,6.353-51.738,6.753-48.768-6.759Zm-53.219,6.537,48.768,6.771-55.254,7.206-48.57-7.214Zm-56.719,6.967,48.586,7.23-59.134,7.716-48.245-7.72Zm-60.576,7.442,48.229,7.736L120.051,43.4,72.32,35.116ZM2.9,43.643,70.412,35.35l47.715,8.293L49.9,52.546Zm48.427,9.174,68.258-8.923,51.278,8.919L102,62.412Zm52.2,9.88,68.875-9.617,55.278,9.613-69.39,10.373Zm56.426,10.685,69.406-10.4,59.752,10.386L219.321,84.625Zm61.178,11.583,69.794-11.281,64.781,11.265L285.733,97.2Zm137.1,25.958L287.689,97.566l69.976-12.274,70.483,12.254ZM430.1,97.173,359.637,84.951l64.25-11.277,70.19,11.259Zm65.763-12.584-70.174-11.23-.008,0,59.221-10.388,69.731,10.377Zm60.4-11.556L486.554,62.679l54.739-9.6,69.129,9.6ZM611.95,62.379,542.837,52.8,593.6,43.9l68.416,8.9Zm51.476-9.847-68.392-8.884,47.208-8.283,67.624,8.283Z" transform="translate(0)" fill="#fff"/>
</svg>
