<svg xmlns="http://www.w3.org/2000/svg" width="181.707" height="14.105" viewBox="0 0 181.707 14.105">
  <path id="volvo-wordmark-black" d="M3.078,2.342,9.331,13.7l7.241.006L22.72,2.341l3.081,0V.282H16.533V2.341H19.21l-4.476,8.277L10.2,2.342l3.253,0V.282H0l0,2.06H3.078m79.68-.005V.282l12.4,0V2.337H92.067v9.275h2.863a4.076,4.076,0,0,0,4.393-4.13h2.046v6.211H82.756V11.615h3.126l0-9.278H82.757M52.621,11.971c-2.274-.041-3.273-2.554-3.23-5.051.045-2.586,1.283-4.841,3.413-4.8s3.255,2.336,3.209,4.92c-.043,2.439-1.05,4.978-3.392,4.935M52.69,0c-6.226,0-9.533,3.106-9.533,7,0,3.952,3.184,7.1,9.569,7.1s9.533-3.15,9.533-7.1c0-3.9-3.342-7-9.569-7m69.831,2.343L128.775,13.7l7.241.006,6.147-11.369,3.081,0V.282h-9.268V2.341h2.677l-4.476,8.277-4.536-8.275,3.253,0V.282H119.446l0,2.06h3.078m49.547,9.629c-2.274-.041-3.273-2.554-3.23-5.051.045-2.586,1.283-4.841,3.413-4.8s3.255,2.336,3.209,4.92c-.043,2.439-1.05,4.978-3.392,4.935M172.137,0C165.91,0,162.6,3.105,162.6,7c0,3.952,3.184,7.1,9.569,7.1s9.534-3.15,9.534-7.1c0-3.9-3.342-7-9.57-7" transform="translate(0 0.001)" fill="#161618"/>
</svg>
