<svg xmlns="http://www.w3.org/2000/svg" width="40.569" height="32.455" viewBox="0 0 40.569 32.455"><path d="M34.78,5.034a76.472,76.472,0,0,0-25.071,0C4.962,6.028,2,9.091,2,13.087v14.2c0,4.057,2.962,7.079,7.789,8.114a76.005,76.005,0,0,0,12.5,1.055A76.623,76.623,0,0,0,34.8,35.423c4.723-.9,7.765-4.06,7.765-8.117v-14.2C42.569,9.071,39.526,5.907,34.78,5.034ZM28.9,21.14,18.755,27.226a.974.974,0,0,1-.527.142,1.156,1.156,0,0,1-.507-.122,1.055,1.055,0,0,1-.507-.933V14.142a1.055,1.055,0,0,1,.507-.893,1.1,1.1,0,0,1,1.035,0L28.9,19.335a1.035,1.035,0,0,1,0,1.744Z" transform="translate(-2 -4)" fill="#0B0D48"/></svg>